<svg xmlns="http://www.w3.org/2000/svg" viewBox="0 0 64 64" role="img" aria-label="CineClash favicon">
  <defs>
    <linearGradient id="g" x1="0" y1="0" x2="1" y2="1">
      <stop offset="0%" stop-color="#ff6b35"/>
      <stop offset="100%" stop-color="#1ecbe1"/>
    </linearGradient>
  </defs>
  <rect width="64" height="64" rx="14" fill="#081427"/>
  <path d="M47 20c-3-4-8-6-14-6-10 0-18 7-18 18 0 10 8 18 18 18 6 0 11-2 14-6l-6-4c-2 2-5 3-8 3-6 0-11-5-11-11 0-7 5-11 11-11 3 0 6 1 8 3l6-4z" fill="url(#g)"/>
</svg>
