<svg xmlns="http://www.w3.org/2000/svg" viewBox="0 0 1600 900" role="img" aria-labelledby="title desc">
  <title id="title">Impostor cast game preview</title>
  <desc id="desc">Nine actor tiles where only true cast members should be selected.</desc>
  <defs>
    <linearGradient id="bg" x1="0" y1="0" x2="1" y2="1">
      <stop offset="0%" stop-color="#081427"/>
      <stop offset="45%" stop-color="#1e2b53"/>
      <stop offset="100%" stop-color="#183a3b"/>
    </linearGradient>
  </defs>
  <rect width="1600" height="900" fill="url(#bg)"/>
  <rect x="120" y="110" width="1360" height="680" rx="40" fill="#0b1427" fill-opacity="0.78" stroke="#61dfff" stroke-opacity="0.24"/>
  <text x="180" y="215" fill="#2bd6ea" font-family="Arial, sans-serif" font-size="44" font-weight="700" letter-spacing="4">IMPOSTOR</text>
  <text x="180" y="262" fill="#ffffff" font-family="Arial, sans-serif" font-size="50" font-weight="700">
    <tspan x="180" dy="0">Select every cast member from</tspan>
    <tspan x="180" dy="56">"The Godfather"</tspan>
  </text>
  <g font-family="Arial, sans-serif" font-size="34" font-weight="700">
    <rect x="180" y="330" width="390" height="110" rx="16" fill="#204938" stroke="#35d07f" stroke-width="4"/>
    <text x="375" y="397" fill="#e8fff1" text-anchor="middle">Al Pacino</text>
    <rect x="605" y="330" width="390" height="110" rx="16" fill="#204938" stroke="#35d07f" stroke-width="4"/>
    <text x="800" y="397" fill="#e8fff1" text-anchor="middle">Marlon Brando</text>
    <rect x="1030" y="330" width="390" height="110" rx="16" fill="#1a2946" stroke="#7ea0d2" stroke-opacity="0.4"/>
    <text x="1225" y="397" fill="#f2f6ff" text-anchor="middle">Neil Patrick Harris</text>

    <rect x="180" y="460" width="390" height="110" rx="16" fill="#1a2946" stroke="#7ea0d2" stroke-opacity="0.4"/>
    <text x="375" y="527" fill="#f2f6ff" text-anchor="middle">Emma Stone</text>
    <rect x="605" y="460" width="390" height="110" rx="16" fill="#204938" stroke="#35d07f" stroke-width="4"/>
    <text x="800" y="527" fill="#e8fff1" text-anchor="middle">James Caan</text>
    <rect x="1030" y="460" width="390" height="110" rx="16" fill="#1a2946" stroke="#7ea0d2" stroke-opacity="0.4"/>
    <text x="1225" y="527" fill="#f2f6ff" text-anchor="middle">Ryan Gosling</text>

    <rect x="180" y="590" width="390" height="110" rx="16" fill="#1a2946" stroke="#7ea0d2" stroke-opacity="0.4"/>
    <text x="375" y="657" fill="#f2f6ff" text-anchor="middle">Scarlett Johansson</text>
    <rect x="605" y="590" width="390" height="110" rx="16" fill="#204938" stroke="#35d07f" stroke-width="4"/>
    <text x="800" y="657" fill="#e8fff1" text-anchor="middle">Robert Duvall</text>
    <rect x="1030" y="590" width="390" height="110" rx="16" fill="#1a2946" stroke="#7ea0d2" stroke-opacity="0.4"/>
    <text x="1225" y="657" fill="#f2f6ff" text-anchor="middle">Tom Hardy</text>
  </g>
</svg>
